HIERARCHY
ROOT SpineBase
{
  OFFSET 0.000000 0.000000 0.000000
  CHANNELS 6 Xposition Yposition Zposition Zrotation Xrotation Yrotation
  JOINT SpineMid
  {
    OFFSET 0.000000 28.509547 0.000000
    CHANNELS 3 Zrotation Xrotation Yrotation
    JOINT SpineShoulder
    {
      OFFSET -0.276466 21.258971 -0.846017
      CHANNELS 3 Zrotation Xrotation Yrotation
      JOINT Neck
      {
        OFFSET -0.233688 7.085214 -0.647548
        CHANNELS 3 Zrotation Xrotation Yrotation
        JOINT Head
        {
          OFFSET -3.679792 14.006053 0.258426
          CHANNELS 3 Zrotation Xrotation Yrotation
          End Site
          {
            OFFSET 0 0 0
          }
        }
      }
      JOINT ShoulderLeft
      {
        OFFSET -5.739885 -5.240954 2.681393
        CHANNELS 3 Zrotation Xrotation Yrotation
        JOINT ElbowLeft
        {
          OFFSET 7.457540 24.327276 -13.400085
          CHANNELS 3 Zrotation Xrotation Yrotation
          JOINT WristLeft
          {
            OFFSET -17.627190 7.187449 6.124678
            CHANNELS 3 Zrotation Xrotation Yrotation
            JOINT HandLeft
            {
              OFFSET -5.816395 2.349392 2.413233
              CHANNELS 3 Zrotation Xrotation Yrotation
              JOINT HandTipLeft
              {
                OFFSET -3.828100 5.271896 1.386811
                CHANNELS 3 Zrotation Xrotation Yrotation
                End Site
                {
                  OFFSET 0 0 0
                }
              }
              JOINT ThumbLeft
              {
                OFFSET 5.135020 1.537252 1.146253
                CHANNELS 3 Zrotation Xrotation Yrotation
                End Site
                {
                  OFFSET 0 0 0
                }
              }
            }
          }
        }
      }
      JOINT ShoulderRight
      {
        OFFSET 5.162010 -4.649812 -11.721480
        CHANNELS 3 Zrotation Xrotation Yrotation
        JOINT ElbowRight
        {
          OFFSET 3.423528 -22.161019 -4.746936
          CHANNELS 3 Zrotation Xrotation Yrotation
          JOINT WristRight
          {
            OFFSET -6.700655 -24.091600 0.490068
            CHANNELS 3 Zrotation Xrotation Yrotation
            JOINT HandRight
            {
              OFFSET -2.798512 -7.042655 2.965044
              CHANNELS 3 Zrotation Xrotation Yrotation
              JOINT HandTipRight
              {
                OFFSET -2.028714 -6.850389 0.336412
                CHANNELS 3 Zrotation Xrotation Yrotation
                End Site
                {
                  OFFSET 0 0 0
                }
              }
              JOINT ThumbRight
              {
                OFFSET 4.955530 0.422730 1.518283
                CHANNELS 3 Zrotation Xrotation Yrotation
                End Site
                {
                  OFFSET 0 0 0
                }
              }
            }
          }
        }
      }
    }
  }
  JOINT HipLeft
  {
    OFFSET -5.195856 0.558503 -1.842090
    CHANNELS 3 Zrotation Xrotation Yrotation
    JOINT KneeLeft
    {
      OFFSET 7.626486 -35.205745 5.245669
      CHANNELS 3 Zrotation Xrotation Yrotation
      JOINT AnkleLeft
      {
        OFFSET 5.201616 -41.817652 15.168286
        CHANNELS 3 Zrotation Xrotation Yrotation
        JOINT FootLeft
        {
          OFFSET -6.492189 -5.808375 -3.103749
          CHANNELS 3 Zrotation Xrotation Yrotation
          End Site
          {
            OFFSET 0 0 0
          }
        }
      }
    }
  }
  JOINT HipRight
  {
    OFFSET 4.214103 1.522211 -4.678518
    CHANNELS 3 Zrotation Xrotation Yrotation
    JOINT KneeRight
    {
      OFFSET -0.968379 -38.842582 10.047658
      CHANNELS 3 Zrotation Xrotation Yrotation
      JOINT AnkleRight
      {
        OFFSET 5.140456 -39.117090 14.021846
        CHANNELS 3 Zrotation Xrotation Yrotation
        JOINT FootRight
        {
          OFFSET -7.729761 -5.380808 -6.311354
          CHANNELS 3 Zrotation Xrotation Yrotation
          End Site
          {
            OFFSET 0 0 0
          }
        }
      }
    }
  }
}
MOTION
Frames: 16
Frame Time: 0.033333
50.825652 200.375775 343.482883 -0.000000 0.000000 16.774291 -0.000000 0.000000 -16.774291 -0.000000 0.000000 0.000000 -0.000000 0.000000 0.000000 0.000000 0.000000 0.000000 -0.000000 0.000000 0.000000 -0.000000 0.000000 0.000000 -0.000000 0.000000 0.000000 -0.000000 0.000000 0.000000 0.000000 0.000000 0.000000 0.000000 0.000000 0.000000 -0.000000 0.000000 0.000000 -0.000000 0.000000 0.000000 -0.000000 0.000000 0.000000 -0.000000 0.000000 0.000000 0.000000 0.000000 0.000000 0.000000 0.000000 0.000000 -0.000000 0.000000 -16.774291 -0.000000 0.000000 0.000000 -0.000000 0.000000 0.000000 0.000000 0.000000 0.000000 -0.000000 0.000000 -16.774291 -0.000000 0.000000 0.000000 -0.000000 0.000000 0.000000 0.000000 0.000000 0.000000
50.831324 200.351319 343.509111 0.041836 -0.057035 16.960420 -0.023379 0.066758 -16.960385 -0.000000 0.000000 0.000000 -0.000000 0.000000 0.000000 0.000000 0.000000 0.000000 -0.000000 0.000000 0.000000 2.990670 1.609378 1.260376 -0.085374 0.114556 -0.114969 -2.937902 -1.661320 -1.234116 0.000000 0.000000 0.000000 0.000000 0.000000 0.000000 -0.383144 -0.864327 -0.054463 0.382366 0.864672 0.048688 0.711258 1.906446 -0.474501 -0.189686 -3.724883 1.038404 0.000000 0.000000 0.000000 0.000000 0.000000 0.000000 -0.023379 0.066758 -16.960385 0.185624 -0.848440 -0.036727 2.964811 5.854032 -7.470786 0.000000 0.000000 0.000000 -0.023379 0.066758 -16.960385 -0.000000 0.000000 0.000000 1.774405 -2.346646 1.390722 0.000000 0.000000 0.000000
50.837168 200.325057 343.532065 0.077576 -0.107571 17.081277 -0.042558 0.125612 -17.081157 -0.000000 0.000000 0.000000 -0.000000 0.000000 0.000000 0.000000 0.000000 0.000000 -0.000000 0.000000 0.000000 4.974675 2.722591 2.057270 -0.144510 0.185850 -0.198636 -4.920934 -2.734250 -2.105632 0.000000 0.000000 0.000000 0.000000 0.000000 0.000000 -0.656784 -1.527255 -0.104409 0.654233 1.528349 0.086929 1.393289 3.465701 -0.847988 -0.339529 -6.658922 1.846136 0.000000 0.000000 0.000000 0.000000 0.000000 0.000000 0.244989 1.069334 -16.870517 0.284655 -2.490743 -0.285866 5.823986 9.766339 -13.254587 0.000000 0.000000 0.000000 -0.042558 0.125612 -17.081157 -0.000000 0.000000 0.000000 3.228037 -4.165618 2.526535 0.000000 0.000000 0.000000
50.843182 200.296988 343.551744 0.107214 -0.151600 17.137916 -0.057781 0.176462 -17.137685 -0.000000 0.000000 0.000000 -0.000000 0.000000 0.000000 0.000000 0.000000 0.000000 -0.000000 0.000000 0.000000 6.030517 3.329281 2.467979 -0.176612 0.222239 -0.245502 -5.987644 -3.294821 -2.586613 0.000000 0.000000 0.000000 0.000000 0.000000 0.000000 -0.834799 -2.017816 -0.148362 0.830088 2.019758 0.119028 2.029707 4.662041 -1.108332 -0.479964 -8.771533 2.402652 0.000000 0.000000 0.000000 0.000000 0.000000 0.000000 0.413624 1.485401 -16.833301 0.239782 -3.371302 -0.427710 8.247589 12.080601 -17.311949 0.000000 0.000000 0.000000 -0.057781 0.176462 -17.137685 1.035033 -0.101926 0.358012 3.236323 -5.365352 2.985102 0.000000 0.000000 0.000000
50.849368 200.267114 343.568150 0.130747 -0.189118 17.131129 -0.069240 0.219239 -17.130780 -0.000000 0.000000 0.000000 -0.000000 0.000000 0.000000 0.000000 0.000000 0.000000 -0.000000 0.000000 0.000000 6.204478 3.430194 2.534785 -0.181798 0.228184 -0.253375 -6.164306 -3.386526 -2.667066 0.000000 0.000000 0.000000 0.000000 0.000000 0.000000 -0.926448 -2.356280 -0.185711 1.475351 3.304305 -0.131351 2.026970 4.556398 -0.956169 -0.633028 -10.049408 2.690867 0.000000 0.000000 0.000000 0.000000 0.000000 0.000000 0.609613 1.803543 -16.743606 0.072612 -4.006128 -0.570198 10.121235 13.135240 -19.737501 0.000000 0.000000 0.000000 -0.069240 0.219239 -17.130780 1.239464 -0.149440 0.425486 3.685994 -6.074207 3.386595 0.000000 0.000000 0.000000
50.855725 200.235433 343.581282 0.148174 -0.220120 17.061443 -0.077072 0.253906 -17.060988 -0.000000 0.000000 0.000000 -0.000000 0.000000 0.000000 0.000000 0.000000 0.000000 -0.000000 0.000000 0.000000 5.504463 3.025872 2.264702 -0.160129 0.204416 -0.221948 -5.455631 -3.016702 -2.345679 0.000000 0.000000 0.000000 0.000000 0.000000 0.000000 -0.937374 -2.556138 -0.216377 1.534363 3.871561 -0.212012 2.475338 4.662391 -0.840927 -0.810142 -10.492496 2.700351 0.000000 0.000000 0.000000 0.000000 0.000000 0.000000 0.829711 2.012339 -16.603974 -0.214916 -4.390462 -0.712645 11.443586 13.155027 -20.638659 0.000000 0.000000 0.000000 -0.077072 0.253906 -17.060988 1.368777 -0.204142 0.465255 3.790733 -6.252435 3.448648 0.000000 0.000000 0.000000
50.879670 200.217378 343.585731 0.166946 -0.219205 17.152918 -0.094874 0.258690 -17.152385 -0.000000 0.000000 0.000000 -0.000000 0.000000 0.000000 0.000000 0.000000 0.000000 -0.000000 0.000000 0.000000 4.991502 2.695025 1.984947 -0.144208 0.187686 -0.197566 -4.933938 -2.714332 -2.033097 0.000000 0.000000 0.000000 0.000000 0.000000 0.000000 -0.084019 -2.153570 -0.317628 0.364482 4.565726 -0.367449 2.958282 2.615268 0.038397 -0.650130 -8.107010 1.822371 0.000000 0.000000 0.000000 0.000000 0.000000 0.000000 1.221001 1.415762 -16.711449 -1.312225 -3.774127 -0.904303 14.044266 7.647041 -15.690202 0.000000 0.000000 0.000000 -0.094874 0.258690 -17.152385 1.420111 -0.346015 0.466627 2.939958 -5.221356 2.906672 0.000000 0.000000 0.000000
50.921563 200.262288 343.552283 0.191610 -0.158801 16.994043 -0.136831 0.207868 -16.993530 -0.000000 0.000000 0.000000 -0.000000 0.000000 0.000000 0.000000 0.000000 0.000000 -0.000000 0.000000 0.000000 1.142937 0.509162 0.262268 1.125750 1.037221 1.144345 -2.302074 -1.494564 -1.457331 0.000000 0.000000 0.000000 0.000000 0.000000 0.000000 -0.674186 -2.470846 -0.253291 0.835510 4.661541 -0.391517 4.905473 3.170948 0.607348 -1.775111 -6.399227 0.550308 0.000000 0.000000 0.000000 0.000000 0.000000 0.000000 1.164253 2.101080 -16.441339 -0.850534 -4.575526 -0.936220 16.821117 2.728787 -11.581541 0.000000 0.000000 0.000000 -0.136831 0.207868 -16.993530 1.353920 -0.456493 0.429469 0.827220 -2.575767 1.501067 0.000000 0.000000 0.000000
51.014857 200.506217 343.569839 0.202136 -0.124643 12.214693 -0.171189 0.164588 -12.214227 -0.000000 0.000000 0.000000 0.652365 -0.512030 -0.143445 0.000000 0.000000 0.000000 -0.000000 0.000000 0.000000 -3.789018 -2.061729 -2.097283 2.820753 1.522459 1.323262 0.907710 0.651439 0.658465 0.000000 0.000000 0.000000 0.000000 0.000000 0.000000 -0.905165 -1.802413 -0.099270 1.751846 4.233456 -0.633935 2.781399 3.442052 -0.192693 -0.320291 -3.086074 0.214544 0.000000 0.000000 0.000000 0.000000 0.000000 0.000000 1.239079 1.532637 -11.718542 -1.591807 -3.683719 -0.978764 11.784123 5.594131 -11.352717 0.000000 0.000000 0.000000 -0.171189 0.164588 -12.214227 1.234182 -0.465765 0.385122 1.294338 -2.500733 1.020859 0.000000 0.000000 0.000000
51.008521 200.168543 343.477942 0.137456 -0.172712 13.284309 -0.094093 0.199675 -13.283938 -0.000000 0.000000 0.000000 0.989215 -0.587883 -0.167269 0.000000 0.000000 0.000000 -0.000000 0.000000 0.000000 -10.929048 -4.903420 -4.334563 -2.698776 -0.543169 5.344887 13.793907 4.901097 -2.001931 0.000000 0.000000 0.000000 0.000000 0.000000 0.000000 -0.914102 -1.804085 -0.097762 2.745609 4.377882 -0.711429 0.743915 1.235749 0.242178 0.810531 -1.264389 -0.094822 0.000000 0.000000 0.000000 0.000000 0.000000 0.000000 1.627454 0.770837 -12.863009 -2.607332 -2.485496 -1.049309 7.528783 7.621059 -10.539625 0.000000 0.000000 0.000000 -0.094093 0.199675 -13.283938 1.120502 -0.334979 0.360080 3.043550 -3.836918 0.951353 0.000000 0.000000 0.000000
50.578284 201.632051 344.826177 0.017873 -0.597177 21.712419 0.204326 0.561419 -21.713327 -0.000000 0.000000 0.000000 2.323322 -1.991638 -0.523174 0.000000 0.000000 0.000000 -0.000000 0.000000 0.000000 -5.966724 -3.899140 -5.546746 -2.235507 -1.243387 0.579238 7.886040 5.589629 4.380702 0.000000 0.000000 0.000000 0.000000 0.000000 0.000000 0.052992 0.861902 0.121199 2.970720 1.010159 -0.590520 -0.200221 3.907595 -0.772626 0.857531 -4.488237 1.118344 0.000000 0.000000 0.000000 0.000000 0.000000 0.000000 3.172871 6.181318 -20.408601 -1.946182 -7.857032 -2.243172 3.378882 9.087135 -9.155648 0.000000 0.000000 0.000000 1.142741 0.923085 -21.551342 0.049642 -0.711862 0.110102 4.063099 -5.016914 1.649624 0.000000 0.000000 0.000000
50.303236 200.437517 344.625415 -0.002971 -0.836073 26.051605 0.369877 0.749817 -26.054047 -0.000000 0.000000 0.000000 2.596901 -1.438981 -0.391147 0.000000 0.000000 0.000000 -0.000000 0.000000 0.000000 -4.056739 -2.643750 -3.491171 -6.640174 -6.493397 -12.199781 8.470233 11.297349 14.325919 0.000000 0.000000 0.000000 0.000000 0.000000 0.000000 -0.000000 0.000000 0.000000 4.062203 1.301920 -0.328948 -2.184035 -0.865276 0.887323 2.267217 -3.395126 0.598006 0.000000 0.000000 0.000000 0.000000 0.000000 0.000000 4.163796 6.401586 -24.682326 -2.220812 -8.340781 -2.408461 -1.493749 11.278137 -8.021655 0.000000 0.000000 0.000000 1.509229 -0.745533 -25.599065 -1.673742 0.856105 -0.442518 6.324862 -6.957765 3.491242 0.000000 0.000000 0.000000
49.934054 196.781042 341.959949 -0.249457 0.114051 4.632801 0.125588 0.928912 -4.625756 0.199207 -1.050091 -0.003902 1.891177 0.481623 0.083322 0.000000 0.000000 0.000000 -0.000000 0.000000 0.000000 -5.195195 -1.042956 2.071116 -16.802586 -11.404875 -31.101710 14.616151 20.052395 22.748523 0.000000 0.000000 0.000000 0.000000 0.000000 0.000000 0.059782 -4.386192 -0.694074 4.800225 6.342949 -0.197813 -2.524323 -12.085872 5.502796 2.202110 8.436539 -4.670239 0.000000 0.000000 0.000000 0.000000 0.000000 0.000000 2.734648 -3.276615 -4.783288 -3.779139 1.007395 -0.279782 -4.694114 12.603400 -6.939861 0.000000 0.000000 0.000000 2.698882 -3.426187 -3.781411 -1.694883 3.270882 -0.384816 4.767638 -6.867744 3.299106 0.000000 0.000000 0.000000
49.146722 200.292870 335.333067 -0.124015 -2.767671 24.949392 0.202193 0.752684 -24.985906 -0.258311 0.615483 -0.049204 0.819270 4.690093 0.931999 0.000000 0.000000 0.000000 0.513966 1.385082 0.086530 -7.016335 3.857494 17.717187 -36.798220 -7.506099 -56.707907 29.692184 30.402319 21.091834 0.000000 0.000000 0.000000 0.000000 0.000000 0.000000 -1.448874 -17.856442 -2.885895 8.475295 20.586156 -0.198146 2.159266 -22.708216 13.799782 -1.729180 18.514897 -10.474880 0.000000 0.000000 0.000000 0.000000 0.000000 0.000000 4.887318 -1.357882 -24.709139 -5.854417 -0.337466 -0.843212 -9.534841 13.879313 -4.653383 0.000000 0.000000 0.000000 0.025195 -9.735602 -23.759703 -2.941982 12.126282 -0.725515 0.133014 -2.287464 1.136796 0.000000 0.000000 0.000000
49.836180 192.233561 337.581394 0.166291 -4.897537 43.810487 0.205224 0.660736 -43.853529 -0.334927 1.831596 -0.042667 -1.287602 8.659074 1.956399 0.000000 0.000000 0.000000 0.471518 2.447563 0.113967 -11.756961 3.845997 25.208039 33.842245 -19.877381 -38.506259 -14.027300 -15.909566 10.686795 0.000000 0.000000 0.000000 0.000000 0.000000 0.000000 -3.629756 -27.575881 -4.972702 10.010748 34.206512 -1.624515 4.892865 -30.619210 18.701372 -1.347885 11.193529 -8.929962 0.000000 0.000000 0.000000 0.000000 0.000000 0.000000 5.916604 -4.247845 -43.633826 -8.220384 1.199211 -0.608344 -12.888815 15.034957 -3.280989 0.000000 0.000000 0.000000 -5.416318 -13.146790 -42.824701 -6.221619 20.157167 -0.766389 -1.826660 1.290367 -0.967624 0.000000 0.000000 0.000000
49.721339 174.079658 347.182277 0.463784 -6.267759 54.297148 0.108018 0.680782 -54.323797 -0.458958 2.755773 -0.032772 -3.467573 11.905264 3.078407 0.000000 0.000000 0.000000 0.476244 3.027160 0.131107 -28.754800 -6.340831 23.827871 -27.245380 3.843192 -70.462669 53.209869 5.830017 -14.331725 0.000000 0.000000 0.000000 0.000000 0.000000 0.000000 -6.873524 -38.035547 -7.952000 9.998346 52.217203 -3.485207 19.781668 -45.957851 35.658608 -6.829411 13.271236 -9.339792 0.000000 0.000000 0.000000 0.000000 0.000000 0.000000 2.479081 -10.086668 -55.229591 -11.247560 7.227288 1.019881 -14.027066 15.165733 -2.600205 0.000000 0.000000 0.000000 -14.088355 -18.406749 -54.286947 -8.524918 31.468151 -0.134816 -4.046931 4.084793 -3.334385 0.000000 0.000000 0.000000
